# xmcd
#
# Track frame offsets:
#	150
#	19275
#	37738
#	56048
#	75547
#	94400
#	115950
#	134954
#	153413
#	171748
#	191252
#	210060
#	242922
#
# Disc length: 3252 seconds
#
# Revision: 2
# Processed by: cddbd v1.5.2PL0 Copyright (c) Steve Scherf et al.
# Submitted via: audiograbber 1.83.01
#
DISCID=b20cb20d
DTITLE=Various Artist - Performers Choice 0003
DYEAR=1900
DGENRE=Karaoke
TTITLE0=Faith Hill - When The Lights Go Down
TTITLE1=Wynonna - What The World Needs
TTITLE2=Jennifer Hudson - Beautiful Goodbye
TTITLE3=Martina McBride - Concrete Angel
TTITLE4=Kellie Coffey - When You Lie Next To Me
TTITLE5=Dixie Chicks - Travelin' Soldier
TTITLE6=Faith Hill - When The Lights Go Down (wvocals)
TTITLE7=Wynonna - What The World Needs (wvocals)
TTITLE8=Jennifer Hudson - Beautiful Goodbye (wvocals)
TTITLE9=Martina McBride - Concrete Angel (wvocals)
TTITLE10=Kellie Coffey - When You Lie Next To Me (wvocals)
TTITLE11=Dixie Chicks - Travelin' Soldier (wvocals)
TTITLE12=PC0004 - Data Track
EXTD=
EXTT0=
EXTT1=
EXTT2=
EXTT3=
EXTT4=
EXTT5=
EXTT6=
EXTT7=
EXTT8=
EXTT9=
EXTT10=
EXTT11=
EXTT12=
PLAYORDER=
